<?xml version="1.0" encoding="UTF-8"?>
<svg width="1600px" height="300px" viewBox="0 0 1600 300" version="1.1" xmlns="http://www.w3.org/2000/svg" xmlns:xlink="http://www.w3.org/1999/xlink">
    <!-- Generator: Sketch 52.6 (67491) - http://www.bohemiancoding.com/sketch -->
    <title>SPStorkController - Name</title>
    <desc>Created with Sketch.</desc>
    <g id="SPStorkController---Name" stroke="none" stroke-width="1" fill="none" fill-rule="evenodd">
        <rect fill="#FFFFFF" x="0" y="0" width="1600" height="300"></rect>
        <g id="Group-3" transform="translate(402.000000, 90.000000)" fill="#FD2D55">
            <path d="M0.702148438,49.9384766 L16.0830078,49.9384766 C16.4785156,54.5527344 21.0927734,57.4970703 27.7724609,57.4970703 C33.7929688,57.4970703 37.9238281,54.5966797 37.9238281,50.421875 C37.9238281,46.90625 35.1552734,45.0166016 27.9042969,43.5664062 L19.5546875,41.8964844 C7.953125,39.6992188 1.9765625,33.3710938 1.9765625,23.3955078 C1.9765625,11.0029297 11.9082031,2.87304688 27.2011719,2.87304688 C42.0546875,2.87304688 52.3378906,10.9150391 52.6015625,22.6484375 L37.7041016,22.6484375 C37.3525391,18.1660156 33.0898438,15.0458984 27.4208984,15.0458984 C21.7519531,15.0458984 18.0166016,17.7265625 18.0166016,21.9453125 C18.0166016,25.4169922 20.8291016,27.4384766 27.5087891,28.7568359 L35.6826172,30.3388672 C48.2070312,32.7558594 53.8320312,38.4248047 53.8320312,48.4882812 C53.8320312,61.7158203 43.7246094,69.7138672 27.1132812,69.7138672 C11.0732422,69.7138672 0.965820312,62.1552734 0.702148438,49.9384766 Z M62.9748828,4.58691406 L90.7483203,4.58691406 C104.371367,4.58691406 113.599883,13.4638672 113.599883,27.0869141 C113.599883,40.578125 103.887969,49.4111328 89.7815235,49.4111328 L79.1028125,49.4111328 L79.1028125,68 L62.9748828,68 L62.9748828,4.58691406 Z M79.1028125,16.9794922 L79.1028125,37.2382812 L86.3977344,37.2382812 C93.2532032,37.2382812 97.2961719,33.7226562 97.2961719,27.1308594 C97.2961719,20.4511719 93.2971485,16.9794922 86.485625,16.9794922 L79.1028125,16.9794922 Z M119.622617,49.9384766 L135.003477,49.9384766 C135.398984,54.5527344 140.013242,57.4970703 146.69293,57.4970703 C152.713438,57.4970703 156.844297,54.5966797 156.844297,50.421875 C156.844297,46.90625 154.075742,45.0166016 146.824766,43.5664062 L138.475156,41.8964844 C126.873594,39.6992188 120.897031,33.3710938 120.897031,23.3955078 C120.897031,11.0029297 130.828672,2.87304688 146.121641,2.87304688 C160.975156,2.87304688 171.258359,10.9150391 171.522031,22.6484375 L156.62457,22.6484375 C156.273008,18.1660156 152.010313,15.0458984 146.341367,15.0458984 C140.672422,15.0458984 136.93707,17.7265625 136.93707,21.9453125 C136.93707,25.4169922 139.74957,27.4384766 146.429258,28.7568359 L154.603086,30.3388672 C167.1275,32.7558594 172.7525,38.4248047 172.7525,48.4882812 C172.7525,61.7158203 162.645078,69.7138672 146.03375,69.7138672 C129.993711,69.7138672 119.886289,62.1552734 119.622617,49.9384766 Z M184.356289,7.8828125 L199.868984,7.8828125 L199.868984,19.7480469 L209.712734,19.7480469 L209.712734,31.3056641 L199.868984,31.3056641 L199.868984,51.125 C199.868984,54.8164062 201.758633,56.6181641 205.801602,56.6181641 C207.603359,56.6181641 208.570156,56.5302734 209.712734,56.3984375 L209.712734,67.4726562 C208.086758,67.8242188 205.230313,68.0878906 202.285977,68.0878906 C189.41,68.0878906 184.356289,64.1767578 184.356289,54.5966797 L184.356289,31.3056641 L176.841641,31.3056641 L176.841641,19.7480469 L184.356289,19.7480469 L184.356289,7.8828125 Z M239.246211,69.1425781 C223.60168,69.1425781 214.329219,59.6064453 214.329219,43.5224609 C214.329219,27.7021484 223.865352,17.9462891 239.246211,17.9462891 C254.714961,17.9462891 264.163203,27.6142578 264.163203,43.5224609 C264.163203,59.6503906 254.934688,69.1425781 239.246211,69.1425781 Z M239.246211,57.2773438 C244.959102,57.2773438 248.211055,52.2236328 248.211055,43.5224609 C248.211055,34.9970703 244.871211,29.8115234 239.246211,29.8115234 C233.621211,29.8115234 230.281367,34.9970703 230.281367,43.5224609 C230.281367,52.2675781 233.53332,57.2773438 239.246211,57.2773438 Z M270.845117,68 L270.845117,19.0888672 L285.962305,19.0888672 L285.962305,27.1308594 L286.797266,27.1308594 C287.983789,22.2089844 292.729883,18.3417969 298.838281,18.3417969 C300.903711,18.3417969 303.320703,18.6054688 304.463281,19.0888672 L304.463281,32.3164062 C303.276758,31.8330078 300.156641,31.4375 297.783594,31.4375 C290.928125,31.4375 286.357813,35.3046875 286.357813,42.1162109 L286.357813,68 L270.845117,68 Z M326.350274,37.3701172 L340.236992,19.0888672 L357.639336,19.0888672 L340.193047,40.0947266 L358.82586,68 L340.720391,68 L328.503594,49.2792969 L325.515313,52.6630859 L325.515313,68 L310.002617,68 L310.002617,0.763671875 L325.515313,0.763671875 L325.515313,37.3701172 L326.350274,37.3701172 Z M390.864219,69.7138672 C371.879844,69.7138672 360.190391,56.9697266 360.190391,36.2714844 C360.190391,15.5732422 371.835899,2.87304688 390.864219,2.87304688 C406.816367,2.87304688 418.901328,13.5078125 419.384727,27.8779297 L403.872031,27.8779297 C403.037071,20.9785156 397.807578,16.3203125 390.864219,16.3203125 C382.031211,16.3203125 376.625938,23.8789062 376.625938,36.2275391 C376.625938,48.6201172 382.031211,56.2666016 390.908164,56.2666016 C397.851524,56.2666016 403.037071,51.7841797 403.959922,44.9726562 L419.428672,44.9726562 C418.901328,59.4746094 407.123985,69.7138672 390.864219,69.7138672 Z M449.13793,69.1425781 C433.493399,69.1425781 424.220938,59.6064453 424.220938,43.5224609 C424.220938,27.7021484 433.757071,17.9462891 449.13793,17.9462891 C464.60668,17.9462891 474.054922,27.6142578 474.054922,43.5224609 C474.054922,59.6503906 464.826406,69.1425781 449.13793,69.1425781 Z M449.13793,57.2773438 C454.850821,57.2773438 458.102774,52.2236328 458.102774,43.5224609 C458.102774,34.9970703 454.76293,29.8115234 449.13793,29.8115234 C443.51293,29.8115234 440.173086,34.9970703 440.173086,43.5224609 C440.173086,52.2675781 443.425039,57.2773438 449.13793,57.2773438 Z M480.736836,68 L480.736836,19.0888672 L495.854024,19.0888672 L495.854024,27.0429688 L496.688985,27.0429688 C498.842305,21.5058594 503.939961,17.9462891 511.015157,17.9462891 C521.913594,17.9462891 527.582539,24.6699219 527.582539,36.4033203 L527.582539,68 L512.025899,68 L512.025899,39.875 C512.025899,33.9423828 509.608907,30.6464844 504.335469,30.6464844 C499.281758,30.6464844 496.249532,34.4257812 496.249532,40.0507812 L496.249532,68 L480.736836,68 Z M540.10918,7.8828125 L555.621875,7.8828125 L555.621875,19.7480469 L565.465625,19.7480469 L565.465625,31.3056641 L555.621875,31.3056641 L555.621875,51.125 C555.621875,54.8164062 557.511524,56.6181641 561.554492,56.6181641 C563.35625,56.6181641 564.323047,56.5302734 565.465625,56.3984375 L565.465625,67.4726562 C563.839649,67.8242188 560.983203,68.0878906 558.038867,68.0878906 C545.162891,68.0878906 540.10918,64.1767578 540.10918,54.5966797 L540.10918,31.3056641 L532.594532,31.3056641 L532.594532,19.7480469 L540.10918,19.7480469 L540.10918,7.8828125 Z M572.674883,68 L572.674883,19.0888672 L587.792071,19.0888672 L587.792071,27.1308594 L588.627032,27.1308594 C589.813555,22.2089844 594.559649,18.3417969 600.668047,18.3417969 C602.733477,18.3417969 605.150469,18.6054688 606.293047,19.0888672 L606.293047,32.3164062 C605.106524,31.8330078 601.986407,31.4375 599.61336,31.4375 C592.757891,31.4375 588.187578,35.3046875 588.187578,42.1162109 L588.187578,68 L572.674883,68 Z M632.926133,69.1425781 C617.281602,69.1425781 608.009141,59.6064453 608.009141,43.5224609 C608.009141,27.7021484 617.545274,17.9462891 632.926133,17.9462891 C648.394883,17.9462891 657.843125,27.6142578 657.843125,43.5224609 C657.843125,59.6503906 648.61461,69.1425781 632.926133,69.1425781 Z M632.926133,57.2773438 C638.639024,57.2773438 641.890977,52.2236328 641.890977,43.5224609 C641.890977,34.9970703 638.551133,29.8115234 632.926133,29.8115234 C627.301133,29.8115234 623.961289,34.9970703 623.961289,43.5224609 C623.961289,52.2675781 627.213243,57.2773438 632.926133,57.2773438 Z M664.964493,68 L664.964493,0.763671875 L680.477188,0.763671875 L680.477188,68 L664.964493,68 Z M690.455,68 L690.455,0.763671875 L705.967696,0.763671875 L705.967696,68 L690.455,68 Z M737.522657,28.9765625 C732.425,28.9765625 728.86543,32.5361328 728.469922,38.0732422 L746.223829,38.0732422 C745.960157,32.3603516 742.708204,28.9765625 737.522657,28.9765625 Z M746.795118,53.5859375 L760.989454,53.5859375 C759.275586,63.1220703 750.310743,69.1425781 737.654493,69.1425781 C722.053907,69.1425781 713.089063,59.9140625 713.089063,43.8740234 C713.089063,27.7460938 722.273633,17.9462891 737.434766,17.9462891 C752.508008,17.9462891 761.297071,27.0869141 761.297071,42.6875 L761.297071,46.9941406 L728.382032,46.9941406 L728.382032,47.7851562 C728.513868,54.1572266 732.161329,58.1123047 738.093946,58.1123047 C742.620313,58.1123047 745.74043,56.4423828 746.795118,53.5859375 Z M767.93504,68 L767.93504,19.0888672 L783.052227,19.0888672 L783.052227,27.1308594 L783.887188,27.1308594 C785.073711,22.2089844 789.819805,18.3417969 795.928204,18.3417969 C797.993633,18.3417969 800.410625,18.6054688 801.553204,19.0888672 L801.553204,32.3164062 C800.36668,31.8330078 797.246563,31.4375 794.873516,31.4375 C788.018047,31.4375 783.447735,35.3046875 783.447735,42.1162109 L783.447735,68 L767.93504,68 Z" id="SPStorkController"></path>
            <path d="M11.2734375,124.542969 C14.203125,124.542969 16.390625,122.648438 16.390625,120.167969 L16.390625,118.46875 L11.5664062,118.78125 C8.8515625,118.957031 7.58203125,119.933594 7.58203125,121.671875 C7.58203125,123.46875 9.125,124.542969 11.2734375,124.542969 Z M9.84765625,128.351562 C5.7265625,128.351562 2.77734375,125.851562 2.77734375,121.945312 C2.77734375,118.078125 5.6875,115.851562 10.8828125,115.539062 L16.390625,115.207031 L16.390625,113.410156 C16.390625,111.320312 14.984375,110.148438 12.3671875,110.148438 C10.140625,110.148438 8.6171875,110.929688 8.16796875,112.375 L3.59765625,112.375 C3.98828125,108.605469 7.5234375,106.203125 12.6015625,106.203125 C18.0898438,106.203125 21.1757812,108.878906 21.1757812,113.410156 L21.1757812,128 L16.5078125,128 L16.5078125,125.070312 L16.1757812,125.070312 C14.984375,127.140625 12.640625,128.351562 9.84765625,128.351562 Z M25.1611455,112.746094 C25.1611455,108.878906 28.6767705,106.203125 33.715833,106.203125 C38.793958,106.203125 41.9775518,108.449219 42.3291143,112.335938 L37.778333,112.335938 C37.4267705,110.832031 36.0009893,109.875 33.7353643,109.875 C31.528333,109.875 29.8681767,110.929688 29.8681767,112.472656 C29.8681767,113.683594 30.8838017,114.425781 33.0322393,114.914062 L36.8017705,115.773438 C40.8838018,116.691406 42.778333,118.449219 42.778333,121.59375 C42.778333,125.695312 39.0088018,128.429688 33.6767705,128.429688 C28.3447392,128.429688 24.9853642,126.125 24.6142705,122.238281 L29.3994267,122.238281 C29.8681767,123.820312 31.372083,124.757812 33.793958,124.757812 C36.2353643,124.757812 37.934583,123.683594 37.934583,122.101562 C37.934583,120.890625 37.0166142,120.128906 34.9853643,119.679688 L31.1963017,118.800781 C27.0947392,117.863281 25.1611455,115.96875 25.1611455,112.746094 Z M74.3428115,128 L71.959999,120.792969 L61.5889053,120.792969 L59.1670303,128 L54.069374,128 L64.069374,99.8164062 L69.7334365,99.8164062 L79.7529678,128 L74.3428115,128 Z M66.6279678,105.1875 L62.7607803,116.808594 L70.788124,116.808594 L66.959999,105.1875 L66.6279678,105.1875 Z M94.3828632,106.28125 C99.7930195,106.28125 103.191457,110.460938 103.191457,117.316406 C103.191457,124.132812 99.832082,128.351562 94.441457,128.351562 C91.3750507,128.351562 89.0117695,127.023438 87.9180195,124.757812 L87.5859882,124.757812 L87.5859882,135.109375 L82.7422382,135.109375 L82.7422382,106.632812 L87.410207,106.632812 L87.410207,110.167969 L87.7422382,110.167969 C88.972707,107.746094 91.4531757,106.28125 94.3828632,106.28125 Z M92.8594257,124.230469 C96.2188007,124.230469 98.2109882,121.632812 98.2109882,117.316406 C98.2109882,113 96.1992695,110.402344 92.878957,110.402344 C89.5781757,110.402344 87.5078632,113.058594 87.488332,117.316406 C87.5078632,121.59375 89.5586445,124.230469 92.8594257,124.230469 Z M118.348696,106.28125 C123.758853,106.28125 127.15729,110.460938 127.15729,117.316406 C127.15729,124.132812 123.797915,128.351562 118.40729,128.351562 C115.340884,128.351562 112.977603,127.023438 111.883853,124.757812 L111.551821,124.757812 L111.551821,135.109375 L106.708071,135.109375 L106.708071,106.632812 L111.37604,106.632812 L111.37604,110.167969 L111.708071,110.167969 C112.93854,107.746094 115.419009,106.28125 118.348696,106.28125 Z M116.825259,124.230469 C120.184634,124.230469 122.176821,121.632812 122.176821,117.316406 C122.176821,113 120.165103,110.402344 116.84479,110.402344 C113.544009,110.402344 111.473696,113.058594 111.454165,117.316406 C111.473696,121.59375 113.524478,124.230469 116.825259,124.230469 Z M130.869217,128 L130.869217,98.3710938 L135.712967,98.3710938 L135.712967,128 L130.869217,128 Z M149.444425,110.050781 C146.5538,110.050781 144.52255,112.121094 144.307706,115.246094 L154.3663,115.246094 C154.268643,112.082031 152.354581,110.050781 149.444425,110.050781 Z M154.405362,122.121094 L158.995206,122.121094 C158.077237,126.007812 154.542081,128.429688 149.503018,128.429688 C143.213956,128.429688 139.424893,124.269531 139.424893,117.394531 C139.424893,110.519531 143.27255,106.203125 149.463956,106.203125 C155.557706,106.203125 159.21005,110.246094 159.21005,116.984375 L159.21005,118.546875 L144.288175,118.546875 L144.288175,118.800781 C144.405362,122.355469 146.456143,124.582031 149.639737,124.582031 C152.042081,124.582031 153.702237,123.703125 154.405362,122.121094 Z M201.653435,128 L196.965935,128 L196.965935,108.175781 L196.692497,108.175781 L188.899528,126.90625 L185.305778,126.90625 L177.51281,108.175781 L177.239372,108.175781 L177.239372,128 L172.551872,128 L172.551872,99.8164062 L178.45031,99.8164062 L186.926872,120.34375 L187.278435,120.34375 L195.754997,99.8164062 L201.653435,99.8164062 L201.653435,128 Z M225.34583,106.632812 L225.34583,128 L220.677861,128 L220.677861,124.601562 L220.34583,124.601562 C219.310674,127.042969 217.22083,128.429688 213.959111,128.429688 C209.291143,128.429688 206.556768,125.519531 206.556768,120.519531 L206.556768,106.632812 L211.400518,106.632812 L211.400518,119.308594 C211.400518,122.570312 212.748174,124.171875 215.638799,124.171875 C218.78333,124.171875 220.50208,122.238281 220.50208,119.074219 L220.50208,106.632812 L225.34583,106.632812 Z M229.448382,112.746094 C229.448382,108.878906 232.964007,106.203125 238.003069,106.203125 C243.081194,106.203125 246.264788,108.449219 246.616351,112.335938 L242.065569,112.335938 C241.714007,110.832031 240.288226,109.875 238.022601,109.875 C235.815569,109.875 234.155413,110.929688 234.155413,112.472656 C234.155413,113.683594 235.171038,114.425781 237.319476,114.914062 L241.089007,115.773438 C245.171038,116.691406 247.065569,118.449219 247.065569,121.59375 C247.065569,125.695312 243.296038,128.429688 237.964007,128.429688 C232.631976,128.429688 229.272601,126.125 228.901507,122.238281 L233.686663,122.238281 C234.155413,123.820312 235.659319,124.757812 238.081194,124.757812 C240.522601,124.757812 242.221819,123.683594 242.221819,122.101562 C242.221819,120.890625 241.303851,120.128906 239.272601,119.679688 L235.483538,118.800781 C231.381976,117.863281 229.448382,115.96875 229.448382,112.746094 Z M250.67984,128 L250.67984,106.632812 L255.504059,106.632812 L255.504059,128 L250.67984,128 Z M253.082184,103.15625 C251.324371,103.15625 250.093902,102.023438 250.093902,100.480469 C250.093902,98.9375 251.324371,97.8046875 253.082184,97.8046875 C254.859527,97.8046875 256.070465,98.9375 256.070465,100.480469 C256.070465,102.023438 254.859527,103.15625 253.082184,103.15625 Z M278.610517,113.820312 L274.001142,113.820312 C273.551923,111.75 271.95036,110.265625 269.29411,110.265625 C265.973798,110.265625 264.001142,112.824219 264.001142,117.257812 C264.001142,121.75 265.993329,124.367188 269.29411,124.367188 C271.813642,124.367188 273.493329,123.175781 274.001142,120.949219 L278.610517,120.949219 C278.083173,125.421875 274.723798,128.429688 269.313642,128.429688 C262.88786,128.429688 259.098798,124.289062 259.098798,117.257812 C259.098798,110.324219 262.868329,106.203125 269.29411,106.203125 C274.782392,106.203125 278.102704,109.328125 278.610517,113.820312 Z M311.34687,128 L309.022651,125.519531 C306.81562,127.414062 303.573433,128.527344 300.135933,128.527344 C294.276558,128.527344 290.389839,125.363281 290.389839,120.578125 C290.389839,117.316406 292.089058,114.914062 295.760933,112.941406 C295.936714,112.863281 296.737495,112.394531 296.952339,112.296875 C294.374214,109.621094 293.436714,107.84375 293.436714,105.792969 C293.436714,102.042969 296.717964,99.2890625 301.151558,99.2890625 C305.604683,99.2890625 308.788276,101.945312 308.788276,105.734375 C308.788276,108.625 307.010933,110.890625 302.928901,113.058594 L308.924995,119.40625 C309.667183,118.019531 310.038276,116.144531 310.038276,113.371094 L310.038276,112.316406 L314.276558,112.316406 L314.276558,113.605469 C314.276558,117.355469 313.436714,120.402344 311.913276,122.589844 L317.010933,128 L311.34687,128 Z M298.475776,115.480469 C296.19062,116.691406 295.057808,118.292969 295.057808,120.1875 C295.057808,122.902344 297.303901,124.738281 300.624214,124.738281 C302.850776,124.738281 305.09687,123.898438 306.366401,122.570312 L299.354683,115.050781 C299.139839,115.128906 298.710151,115.34375 298.475776,115.480469 Z M300.546089,110.597656 C303.436714,109.132812 304.569526,107.824219 304.569526,106.046875 C304.569526,104.113281 303.182808,102.804688 301.171089,102.804688 C299.198433,102.804688 297.792183,104.152344 297.792183,106.046875 C297.792183,107.433594 298.514839,108.625 300.546089,110.597656 Z M358.08713,128 L353.39963,128 L353.39963,108.175781 L353.126192,108.175781 L345.333223,126.90625 L341.739473,126.90625 L333.946505,108.175781 L333.673067,108.175781 L333.673067,128 L328.985567,128 L328.985567,99.8164062 L334.884005,99.8164062 L343.360567,120.34375 L343.71213,120.34375 L352.188692,99.8164062 L358.08713,99.8164062 L358.08713,128 Z M370.490463,124.542969 C373.42015,124.542969 375.60765,122.648438 375.60765,120.167969 L375.60765,118.46875 L370.783431,118.78125 C368.068588,118.957031 366.799056,119.933594 366.799056,121.671875 C366.799056,123.46875 368.342025,124.542969 370.490463,124.542969 Z M369.064681,128.351562 C364.943588,128.351562 361.994369,125.851562 361.994369,121.945312 C361.994369,118.078125 364.904525,115.851562 370.099838,115.539062 L375.60765,115.207031 L375.60765,113.410156 C375.60765,111.320312 374.2014,110.148438 371.584213,110.148438 C369.35765,110.148438 367.834213,110.929688 367.384994,112.375 L362.814681,112.375 C363.205306,108.605469 366.740463,106.203125 371.818588,106.203125 C377.306869,106.203125 380.392806,108.878906 380.392806,113.410156 L380.392806,128 L375.724838,128 L375.724838,125.070312 L375.392806,125.070312 C374.2014,127.140625 371.85765,128.351562 369.064681,128.351562 Z M384.925046,128 L384.925046,106.632812 L389.749264,106.632812 L389.749264,128 L384.925046,128 Z M387.327389,103.15625 C385.569577,103.15625 384.339108,102.023438 384.339108,100.480469 C384.339108,98.9375 385.569577,97.8046875 387.327389,97.8046875 C389.104733,97.8046875 390.315671,98.9375 390.315671,100.480469 C390.315671,102.023438 389.104733,103.15625 387.327389,103.15625 Z M394.594004,128 L394.594004,98.3710938 L399.437754,98.3710938 L399.437754,128 L394.594004,128 Z M432.21317,128 L429.830357,120.792969 L419.459263,120.792969 L417.037388,128 L411.939732,128 L421.939732,99.8164062 L427.603795,99.8164062 L437.623326,128 L432.21317,128 Z M424.498326,105.1875 L420.631138,116.808594 L428.658482,116.808594 L424.830357,105.1875 L424.498326,105.1875 Z M452.253221,106.28125 C457.663378,106.28125 461.061815,110.460938 461.061815,117.316406 C461.061815,124.132812 457.70244,128.351562 452.311815,128.351562 C449.245409,128.351562 446.882128,127.023438 445.788378,124.757812 L445.456346,124.757812 L445.456346,135.109375 L440.612596,135.109375 L440.612596,106.632812 L445.280565,106.632812 L445.280565,110.167969 L445.612596,110.167969 C446.843065,107.746094 449.323534,106.28125 452.253221,106.28125 Z M450.729784,124.230469 C454.089159,124.230469 456.081346,121.632812 456.081346,117.316406 C456.081346,113 454.069628,110.402344 450.749315,110.402344 C447.448534,110.402344 445.378221,113.058594 445.35869,117.316406 C445.378221,121.59375 447.429003,124.230469 450.729784,124.230469 Z M476.219054,106.28125 C481.629211,106.28125 485.027648,110.460938 485.027648,117.316406 C485.027648,124.132812 481.668273,128.351562 476.277648,128.351562 C473.211242,128.351562 470.847961,127.023438 469.754211,124.757812 L469.422179,124.757812 L469.422179,135.109375 L464.578429,135.109375 L464.578429,106.632812 L469.246398,106.632812 L469.246398,110.167969 L469.578429,110.167969 C470.808898,107.746094 473.289367,106.28125 476.219054,106.28125 Z M474.695617,124.230469 C478.054992,124.230469 480.047179,121.632812 480.047179,117.316406 C480.047179,113 478.035461,110.402344 474.715148,110.402344 C471.414367,110.402344 469.344054,113.058594 469.324523,117.316406 C469.344054,121.59375 471.394836,124.230469 474.695617,124.230469 Z M497.861658,128 L497.861658,106.632812 L502.529627,106.632812 L502.529627,110.089844 L502.861658,110.089844 C503.779627,107.648438 505.967127,106.203125 508.799158,106.203125 C511.748377,106.203125 513.799158,107.6875 514.697595,110.089844 L515.029627,110.089844 C516.084314,107.746094 518.545252,106.203125 521.514002,106.203125 C525.791345,106.203125 528.36947,108.878906 528.36947,113.3125 L528.36947,128 L523.545252,128 L523.545252,114.542969 C523.545252,111.789062 522.236658,110.421875 519.639002,110.421875 C517.11947,110.421875 515.459314,112.257812 515.459314,114.699219 L515.459314,128 L510.752283,128 L510.752283,114.191406 C510.752283,111.847656 509.267908,110.421875 506.885095,110.421875 C504.482752,110.421875 502.705408,112.394531 502.705408,115.011719 L502.705408,128 L497.861658,128 Z M541.983741,128.429688 C535.577491,128.429688 531.710303,124.25 531.710303,117.316406 C531.710303,110.421875 535.636085,106.203125 541.983741,106.203125 C548.350928,106.203125 552.257178,110.402344 552.257178,117.316406 C552.257178,124.25 548.37046,128.429688 541.983741,128.429688 Z M541.983741,124.367188 C545.362647,124.367188 547.27671,121.789062 547.27671,117.316406 C547.27671,112.863281 545.343116,110.265625 541.983741,110.265625 C538.604835,110.265625 536.671241,112.863281 536.671241,117.316406 C536.671241,121.789062 538.604835,124.367188 541.983741,124.367188 Z M563.527699,128.351562 C558.117543,128.351562 554.738636,124.09375 554.738636,117.296875 C554.738636,110.539062 558.137074,106.28125 563.527699,106.28125 C566.457386,106.28125 568.879261,107.6875 570.012074,110.03125 L570.344105,110.03125 L570.344105,98.3710938 L575.187855,98.3710938 L575.187855,128 L570.500355,128 L570.500355,124.621094 L570.168324,124.621094 C568.957386,126.964844 566.496449,128.351562 563.527699,128.351562 Z M565.031605,110.402344 C561.730824,110.402344 559.699574,113.019531 559.699574,117.316406 C559.699574,121.632812 561.711293,124.230469 565.031605,124.230469 C568.371449,124.230469 570.402699,121.613281 570.402699,117.316406 C570.402699,113.058594 568.351918,110.402344 565.031605,110.402344 Z M587.259157,124.542969 C590.188844,124.542969 592.376344,122.648438 592.376344,120.167969 L592.376344,118.46875 L587.552126,118.78125 C584.837282,118.957031 583.567751,119.933594 583.567751,121.671875 C583.567751,123.46875 585.110719,124.542969 587.259157,124.542969 Z M585.833376,128.351562 C581.712282,128.351562 578.763063,125.851562 578.763063,121.945312 C578.763063,118.078125 581.673219,115.851562 586.868532,115.539062 L592.376344,115.207031 L592.376344,113.410156 C592.376344,111.320312 590.970094,110.148438 588.352907,110.148438 C586.126344,110.148438 584.602907,110.929688 584.153688,112.375 L579.583376,112.375 C579.974001,108.605469 583.509157,106.203125 588.587282,106.203125 C594.075563,106.203125 597.161501,108.878906 597.161501,113.410156 L597.161501,128 L592.493532,128 L592.493532,125.070312 L592.161501,125.070312 C590.970094,127.140625 588.626344,128.351562 585.833376,128.351562 Z M601.830459,128 L601.830459,98.3710938 L606.674209,98.3710938 L606.674209,128 L601.830459,128 Z M639.21525,113.820312 L634.605875,113.820312 C634.156656,111.75 632.555093,110.265625 629.898843,110.265625 C626.578531,110.265625 624.605875,112.824219 624.605875,117.257812 C624.605875,121.75 626.598062,124.367188 629.898843,124.367188 C632.418375,124.367188 634.098062,123.175781 634.605875,120.949219 L639.21525,120.949219 C638.687906,125.421875 635.328531,128.429688 629.918375,128.429688 C623.492593,128.429688 619.703531,124.289062 619.703531,117.257812 C619.703531,110.324219 623.473062,106.203125 629.898843,106.203125 C635.387125,106.203125 638.707437,109.328125 639.21525,113.820312 Z M651.716239,128.429688 C645.309989,128.429688 641.442801,124.25 641.442801,117.316406 C641.442801,110.421875 645.368583,106.203125 651.716239,106.203125 C658.083426,106.203125 661.989676,110.402344 661.989676,117.316406 C661.989676,124.25 658.102958,128.429688 651.716239,128.429688 Z M651.716239,124.367188 C655.095145,124.367188 657.009208,121.789062 657.009208,117.316406 C657.009208,112.863281 655.075614,110.265625 651.716239,110.265625 C648.337333,110.265625 646.403739,112.863281 646.403739,117.316406 C646.403739,121.789062 648.337333,124.367188 651.716239,124.367188 Z M665.525822,128 L665.525822,106.632812 L670.193791,106.632812 L670.193791,110.050781 L670.525822,110.050781 C671.541447,107.667969 673.689884,106.203125 676.873478,106.203125 C681.639103,106.203125 684.236759,109.074219 684.236759,114.171875 L684.236759,128 L679.393009,128 L679.393009,115.324219 C679.393009,112.0625 678.025822,110.421875 675.076603,110.421875 C672.185978,110.421875 670.369572,112.414062 670.369572,115.558594 L670.369572,128 L665.525822,128 Z M690.175249,101.398438 L694.999467,101.398438 L694.999467,106.769531 L699.56978,106.769531 L699.56978,110.636719 L694.999467,110.636719 L694.999467,121.125 C694.999467,123.234375 695.897905,124.171875 697.929155,124.171875 C698.612749,124.171875 698.983842,124.132812 699.56978,124.074219 L699.56978,127.863281 C698.866655,128 697.968217,128.097656 697.030717,128.097656 C692.128374,128.097656 690.175249,126.4375 690.175249,122.296875 L690.175249,110.636719 L686.796342,110.636719 L686.796342,106.769531 L690.175249,106.769531 L690.175249,101.398438 Z M703.066863,128 L703.066863,106.632812 L707.734832,106.632812 L707.734832,109.953125 L708.066863,109.953125 C708.6528,107.84375 710.957488,106.28125 713.711394,106.28125 C714.414519,106.28125 715.273894,106.359375 715.723113,106.496094 L715.723113,110.988281 C715.352019,110.851562 714.062957,110.714844 713.242644,110.714844 C710.098113,110.714844 707.910613,112.667969 707.910613,115.65625 L707.910613,128 L703.066863,128 Z M727.032696,128.429688 C720.626446,128.429688 716.759258,124.25 716.759258,117.316406 C716.759258,110.421875 720.68504,106.203125 727.032696,106.203125 C733.399883,106.203125 737.306133,110.402344 737.306133,117.316406 C737.306133,124.25 733.419415,128.429688 727.032696,128.429688 Z M727.032696,124.367188 C730.411602,124.367188 732.325665,121.789062 732.325665,117.316406 C732.325665,112.863281 730.392071,110.265625 727.032696,110.265625 C723.65379,110.265625 721.720196,112.863281 721.720196,117.316406 C721.720196,121.789062 723.65379,124.367188 727.032696,124.367188 Z M741.037591,128 L741.037591,98.3710938 L745.881341,98.3710938 L745.881341,128 L741.037591,128 Z M750.843268,128 L750.843268,98.3710938 L755.687018,98.3710938 L755.687018,128 L750.843268,128 Z M769.418476,110.050781 C766.527851,110.050781 764.496601,112.121094 764.281757,115.246094 L774.340351,115.246094 C774.242695,112.082031 772.328632,110.050781 769.418476,110.050781 Z M774.379414,122.121094 L778.969257,122.121094 C778.051289,126.007812 774.516132,128.429688 769.47707,128.429688 C763.188007,128.429688 759.398945,124.269531 759.398945,117.394531 C759.398945,110.519531 763.246601,106.203125 769.438007,106.203125 C775.531757,106.203125 779.184101,110.246094 779.184101,116.984375 L779.184101,118.546875 L764.262226,118.546875 L764.262226,118.800781 C764.379414,122.355469 766.430195,124.582031 769.613789,124.582031 C772.016132,124.582031 773.676289,123.703125 774.379414,122.121094 Z M782.700715,128 L782.700715,106.632812 L787.368684,106.632812 L787.368684,109.953125 L787.700715,109.953125 C788.286653,107.84375 790.59134,106.28125 793.345247,106.28125 C794.048372,106.28125 794.907747,106.359375 795.356965,106.496094 L795.356965,110.988281 C794.985872,110.851562 793.696809,110.714844 792.876497,110.714844 C789.731965,110.714844 787.544465,112.667969 787.544465,115.65625 L787.544465,128 L782.700715,128 Z" id="as-Apple-Music-&amp;-Mai"></path>
        </g>
    </g>
</svg>