<?xml version="1.0" encoding="UTF-8"?>
<svg width="1600px" height="300px" viewBox="0 0 1600 300" version="1.1" xmlns="http://www.w3.org/2000/svg" xmlns:xlink="http://www.w3.org/1999/xlink">
    <!-- Generator: Sketch 52.4 (67378) - http://www.bohemiancoding.com/sketch -->
    <title>SPStorkController - Name</title>
    <desc>Created with Sketch.</desc>
    <g id="SPStorkController---Name" stroke="none" stroke-width="1" fill="none" fill-rule="evenodd">
        <rect fill="#FFFFFF" x="0" y="0" width="1600" height="300"></rect>
        <g id="Group-3" transform="translate(398.000000, 72.000000)" fill="#FD2D55">
            <path d="M4.70214844,67.9384766 L20.0830078,67.9384766 C20.4785156,72.5527344 25.0927734,75.4970703 31.7724609,75.4970703 C37.7929688,75.4970703 41.9238281,72.5966797 41.9238281,68.421875 C41.9238281,64.90625 39.1552734,63.0166016 31.9042969,61.5664062 L23.5546875,59.8964844 C11.953125,57.6992188 5.9765625,51.3710938 5.9765625,41.3955078 C5.9765625,29.0029297 15.9082031,20.8730469 31.2011719,20.8730469 C46.0546875,20.8730469 56.3378906,28.9150391 56.6015625,40.6484375 L41.7041016,40.6484375 C41.3525391,36.1660156 37.0898438,33.0458984 31.4208984,33.0458984 C25.7519531,33.0458984 22.0166016,35.7265625 22.0166016,39.9453125 C22.0166016,43.4169922 24.8291016,45.4384766 31.5087891,46.7568359 L39.6826172,48.3388672 C52.2070312,50.7558594 57.8320312,56.4248047 57.8320312,66.4882812 C57.8320312,79.7158203 47.7246094,87.7138672 31.1132812,87.7138672 C15.0732422,87.7138672 4.96582031,80.1552734 4.70214844,67.9384766 Z M66.9748828,22.5869141 L94.7483203,22.5869141 C108.371367,22.5869141 117.599883,31.4638672 117.599883,45.0869141 C117.599883,58.578125 107.887969,67.4111328 93.7815235,67.4111328 L83.1028125,67.4111328 L83.1028125,86 L66.9748828,86 L66.9748828,22.5869141 Z M83.1028125,34.9794922 L83.1028125,55.2382812 L90.3977344,55.2382812 C97.2532032,55.2382812 101.296172,51.7226562 101.296172,45.1308594 C101.296172,38.4511719 97.2971485,34.9794922 90.485625,34.9794922 L83.1028125,34.9794922 Z M123.622617,67.9384766 L139.003477,67.9384766 C139.398984,72.5527344 144.013242,75.4970703 150.69293,75.4970703 C156.713438,75.4970703 160.844297,72.5966797 160.844297,68.421875 C160.844297,64.90625 158.075742,63.0166016 150.824766,61.5664062 L142.475156,59.8964844 C130.873594,57.6992188 124.897031,51.3710938 124.897031,41.3955078 C124.897031,29.0029297 134.828672,20.8730469 150.121641,20.8730469 C164.975156,20.8730469 175.258359,28.9150391 175.522031,40.6484375 L160.62457,40.6484375 C160.273008,36.1660156 156.010313,33.0458984 150.341367,33.0458984 C144.672422,33.0458984 140.93707,35.7265625 140.93707,39.9453125 C140.93707,43.4169922 143.74957,45.4384766 150.429258,46.7568359 L158.603086,48.3388672 C171.1275,50.7558594 176.7525,56.4248047 176.7525,66.4882812 C176.7525,79.7158203 166.645078,87.7138672 150.03375,87.7138672 C133.993711,87.7138672 123.886289,80.1552734 123.622617,67.9384766 Z M188.356289,25.8828125 L203.868984,25.8828125 L203.868984,37.7480469 L213.712734,37.7480469 L213.712734,49.3056641 L203.868984,49.3056641 L203.868984,69.125 C203.868984,72.8164062 205.758633,74.6181641 209.801602,74.6181641 C211.603359,74.6181641 212.570156,74.5302734 213.712734,74.3984375 L213.712734,85.4726562 C212.086758,85.8242188 209.230313,86.0878906 206.285977,86.0878906 C193.41,86.0878906 188.356289,82.1767578 188.356289,72.5966797 L188.356289,49.3056641 L180.841641,49.3056641 L180.841641,37.7480469 L188.356289,37.7480469 L188.356289,25.8828125 Z M243.246211,87.1425781 C227.60168,87.1425781 218.329219,77.6064453 218.329219,61.5224609 C218.329219,45.7021484 227.865352,35.9462891 243.246211,35.9462891 C258.714961,35.9462891 268.163203,45.6142578 268.163203,61.5224609 C268.163203,77.6503906 258.934688,87.1425781 243.246211,87.1425781 Z M243.246211,75.2773438 C248.959102,75.2773438 252.211055,70.2236328 252.211055,61.5224609 C252.211055,52.9970703 248.871211,47.8115234 243.246211,47.8115234 C237.621211,47.8115234 234.281367,52.9970703 234.281367,61.5224609 C234.281367,70.2675781 237.53332,75.2773438 243.246211,75.2773438 Z M274.845117,86 L274.845117,37.0888672 L289.962305,37.0888672 L289.962305,45.1308594 L290.797266,45.1308594 C291.983789,40.2089844 296.729883,36.3417969 302.838281,36.3417969 C304.903711,36.3417969 307.320703,36.6054688 308.463281,37.0888672 L308.463281,50.3164062 C307.276758,49.8330078 304.156641,49.4375 301.783594,49.4375 C294.928125,49.4375 290.357813,53.3046875 290.357813,60.1162109 L290.357813,86 L274.845117,86 Z M330.350274,55.3701172 L344.236992,37.0888672 L361.639336,37.0888672 L344.193047,58.0947266 L362.82586,86 L344.720391,86 L332.503594,67.2792969 L329.515313,70.6630859 L329.515313,86 L314.002617,86 L314.002617,18.7636719 L329.515313,18.7636719 L329.515313,55.3701172 L330.350274,55.3701172 Z M394.864219,87.7138672 C375.879844,87.7138672 364.190391,74.9697266 364.190391,54.2714844 C364.190391,33.5732422 375.835899,20.8730469 394.864219,20.8730469 C410.816367,20.8730469 422.901328,31.5078125 423.384727,45.8779297 L407.872031,45.8779297 C407.037071,38.9785156 401.807578,34.3203125 394.864219,34.3203125 C386.031211,34.3203125 380.625938,41.8789062 380.625938,54.2275391 C380.625938,66.6201172 386.031211,74.2666016 394.908164,74.2666016 C401.851524,74.2666016 407.037071,69.7841797 407.959922,62.9726562 L423.428672,62.9726562 C422.901328,77.4746094 411.123985,87.7138672 394.864219,87.7138672 Z M453.13793,87.1425781 C437.493399,87.1425781 428.220938,77.6064453 428.220938,61.5224609 C428.220938,45.7021484 437.757071,35.9462891 453.13793,35.9462891 C468.60668,35.9462891 478.054922,45.6142578 478.054922,61.5224609 C478.054922,77.6503906 468.826406,87.1425781 453.13793,87.1425781 Z M453.13793,75.2773438 C458.850821,75.2773438 462.102774,70.2236328 462.102774,61.5224609 C462.102774,52.9970703 458.76293,47.8115234 453.13793,47.8115234 C447.51293,47.8115234 444.173086,52.9970703 444.173086,61.5224609 C444.173086,70.2675781 447.425039,75.2773438 453.13793,75.2773438 Z M484.736836,86 L484.736836,37.0888672 L499.854024,37.0888672 L499.854024,45.0429688 L500.688985,45.0429688 C502.842305,39.5058594 507.939961,35.9462891 515.015157,35.9462891 C525.913594,35.9462891 531.582539,42.6699219 531.582539,54.4033203 L531.582539,86 L516.025899,86 L516.025899,57.875 C516.025899,51.9423828 513.608907,48.6464844 508.335469,48.6464844 C503.281758,48.6464844 500.249532,52.4257812 500.249532,58.0507812 L500.249532,86 L484.736836,86 Z M544.10918,25.8828125 L559.621875,25.8828125 L559.621875,37.7480469 L569.465625,37.7480469 L569.465625,49.3056641 L559.621875,49.3056641 L559.621875,69.125 C559.621875,72.8164062 561.511524,74.6181641 565.554492,74.6181641 C567.35625,74.6181641 568.323047,74.5302734 569.465625,74.3984375 L569.465625,85.4726562 C567.839649,85.8242188 564.983203,86.0878906 562.038867,86.0878906 C549.162891,86.0878906 544.10918,82.1767578 544.10918,72.5966797 L544.10918,49.3056641 L536.594532,49.3056641 L536.594532,37.7480469 L544.10918,37.7480469 L544.10918,25.8828125 Z M576.674883,86 L576.674883,37.0888672 L591.792071,37.0888672 L591.792071,45.1308594 L592.627032,45.1308594 C593.813555,40.2089844 598.559649,36.3417969 604.668047,36.3417969 C606.733477,36.3417969 609.150469,36.6054688 610.293047,37.0888672 L610.293047,50.3164062 C609.106524,49.8330078 605.986407,49.4375 603.61336,49.4375 C596.757891,49.4375 592.187578,53.3046875 592.187578,60.1162109 L592.187578,86 L576.674883,86 Z M636.926133,87.1425781 C621.281602,87.1425781 612.009141,77.6064453 612.009141,61.5224609 C612.009141,45.7021484 621.545274,35.9462891 636.926133,35.9462891 C652.394883,35.9462891 661.843125,45.6142578 661.843125,61.5224609 C661.843125,77.6503906 652.61461,87.1425781 636.926133,87.1425781 Z M636.926133,75.2773438 C642.639024,75.2773438 645.890977,70.2236328 645.890977,61.5224609 C645.890977,52.9970703 642.551133,47.8115234 636.926133,47.8115234 C631.301133,47.8115234 627.961289,52.9970703 627.961289,61.5224609 C627.961289,70.2675781 631.213243,75.2773438 636.926133,75.2773438 Z M668.964493,86 L668.964493,18.7636719 L684.477188,18.7636719 L684.477188,86 L668.964493,86 Z M694.455,86 L694.455,18.7636719 L709.967696,18.7636719 L709.967696,86 L694.455,86 Z M741.522657,46.9765625 C736.425,46.9765625 732.86543,50.5361328 732.469922,56.0732422 L750.223829,56.0732422 C749.960157,50.3603516 746.708204,46.9765625 741.522657,46.9765625 Z M750.795118,71.5859375 L764.989454,71.5859375 C763.275586,81.1220703 754.310743,87.1425781 741.654493,87.1425781 C726.053907,87.1425781 717.089063,77.9140625 717.089063,61.8740234 C717.089063,45.7460938 726.273633,35.9462891 741.434766,35.9462891 C756.508008,35.9462891 765.297071,45.0869141 765.297071,60.6875 L765.297071,64.9941406 L732.382032,64.9941406 L732.382032,65.7851562 C732.513868,72.1572266 736.161329,76.1123047 742.093946,76.1123047 C746.620313,76.1123047 749.74043,74.4423828 750.795118,71.5859375 Z M771.93504,86 L771.93504,37.0888672 L787.052227,37.0888672 L787.052227,45.1308594 L787.887188,45.1308594 C789.073711,40.2089844 793.819805,36.3417969 799.928204,36.3417969 C801.993633,36.3417969 804.410625,36.6054688 805.553204,37.0888672 L805.553204,50.3164062 C804.36668,49.8330078 801.246563,49.4375 798.873516,49.4375 C792.018047,49.4375 787.447735,53.3046875 787.447735,60.1162109 L787.447735,86 L771.93504,86 Z" id="SPStorkController"></path>
            <path d="M15.2734375,142.542969 C18.203125,142.542969 20.390625,140.648438 20.390625,138.167969 L20.390625,136.46875 L15.5664062,136.78125 C12.8515625,136.957031 11.5820312,137.933594 11.5820312,139.671875 C11.5820312,141.46875 13.125,142.542969 15.2734375,142.542969 Z M13.8476562,146.351562 C9.7265625,146.351562 6.77734375,143.851562 6.77734375,139.945312 C6.77734375,136.078125 9.6875,133.851562 14.8828125,133.539062 L20.390625,133.207031 L20.390625,131.410156 C20.390625,129.320312 18.984375,128.148438 16.3671875,128.148438 C14.140625,128.148438 12.6171875,128.929688 12.1679688,130.375 L7.59765625,130.375 C7.98828125,126.605469 11.5234375,124.203125 16.6015625,124.203125 C22.0898438,124.203125 25.1757812,126.878906 25.1757812,131.410156 L25.1757812,146 L20.5078125,146 L20.5078125,143.070312 L20.1757812,143.070312 C18.984375,145.140625 16.640625,146.351562 13.8476562,146.351562 Z M29.1611455,130.746094 C29.1611455,126.878906 32.6767705,124.203125 37.715833,124.203125 C42.793958,124.203125 45.9775518,126.449219 46.3291143,130.335938 L41.778333,130.335938 C41.4267705,128.832031 40.0009893,127.875 37.7353643,127.875 C35.528333,127.875 33.8681768,128.929688 33.8681768,130.472656 C33.8681768,131.683594 34.8838018,132.425781 37.0322393,132.914062 L40.8017705,133.773438 C44.8838018,134.691406 46.778333,136.449219 46.778333,139.59375 C46.778333,143.695312 43.0088018,146.429688 37.6767705,146.429688 C32.3447393,146.429688 28.9853643,144.125 28.6142705,140.238281 L33.3994268,140.238281 C33.8681768,141.820312 35.372083,142.757812 37.793958,142.757812 C40.2353643,142.757812 41.934583,141.683594 41.934583,140.101562 C41.934583,138.890625 41.0166143,138.128906 38.9853643,137.679688 L35.1963018,136.800781 C31.0947393,135.863281 29.1611455,133.96875 29.1611455,130.746094 Z M78.3428115,146 L75.959999,138.792969 L65.5889052,138.792969 L63.1670302,146 L58.069374,146 L68.069374,117.816406 L73.7334365,117.816406 L83.7529677,146 L78.3428115,146 Z M70.6279677,123.1875 L66.7607802,134.808594 L74.788124,134.808594 L70.959999,123.1875 L70.6279677,123.1875 Z M98.3828632,124.28125 C103.793019,124.28125 107.191457,128.460938 107.191457,135.316406 C107.191457,142.132812 103.832082,146.351562 98.441457,146.351562 C95.3750507,146.351562 93.0117695,145.023438 91.9180195,142.757812 L91.5859882,142.757812 L91.5859882,153.109375 L86.7422382,153.109375 L86.7422382,124.632812 L91.410207,124.632812 L91.410207,128.167969 L91.7422382,128.167969 C92.972707,125.746094 95.4531757,124.28125 98.3828632,124.28125 Z M96.8594257,142.230469 C100.218801,142.230469 102.210988,139.632812 102.210988,135.316406 C102.210988,131 100.199269,128.402344 96.878957,128.402344 C93.5781757,128.402344 91.5078632,131.058594 91.488332,135.316406 C91.5078632,139.59375 93.5586445,142.230469 96.8594257,142.230469 Z M122.348696,124.28125 C127.758852,124.28125 131.15729,128.460938 131.15729,135.316406 C131.15729,142.132812 127.797915,146.351562 122.40729,146.351562 C119.340884,146.351562 116.977602,145.023438 115.883852,142.757812 L115.551821,142.757812 L115.551821,153.109375 L110.708071,153.109375 L110.708071,124.632812 L115.37604,124.632812 L115.37604,128.167969 L115.708071,128.167969 C116.93854,125.746094 119.419009,124.28125 122.348696,124.28125 Z M120.825259,142.230469 C124.184634,142.230469 126.176821,139.632812 126.176821,135.316406 C126.176821,131 124.165103,128.402344 120.84479,128.402344 C117.544009,128.402344 115.473696,131.058594 115.454165,135.316406 C115.473696,139.59375 117.524478,142.230469 120.825259,142.230469 Z M134.869217,146 L134.869217,116.371094 L139.712967,116.371094 L139.712967,146 L134.869217,146 Z M153.444425,128.050781 C150.5538,128.050781 148.52255,130.121094 148.307706,133.246094 L158.3663,133.246094 C158.268643,130.082031 156.354581,128.050781 153.444425,128.050781 Z M158.405362,140.121094 L162.995206,140.121094 C162.077237,144.007812 158.542081,146.429688 153.503018,146.429688 C147.213956,146.429688 143.424893,142.269531 143.424893,135.394531 C143.424893,128.519531 147.27255,124.203125 153.463956,124.203125 C159.557706,124.203125 163.21005,128.246094 163.21005,134.984375 L163.21005,136.546875 L148.288175,136.546875 L148.288175,136.800781 C148.405362,140.355469 150.456143,142.582031 153.639737,142.582031 C156.042081,142.582031 157.702237,141.703125 158.405362,140.121094 Z M205.653435,146 L200.965935,146 L200.965935,126.175781 L200.692497,126.175781 L192.899528,144.90625 L189.305778,144.90625 L181.51281,126.175781 L181.239372,126.175781 L181.239372,146 L176.551872,146 L176.551872,117.816406 L182.45031,117.816406 L190.926872,138.34375 L191.278435,138.34375 L199.754997,117.816406 L205.653435,117.816406 L205.653435,146 Z M229.34583,124.632812 L229.34583,146 L224.677861,146 L224.677861,142.601562 L224.34583,142.601562 C223.310674,145.042969 221.22083,146.429688 217.959111,146.429688 C213.291143,146.429688 210.556768,143.519531 210.556768,138.519531 L210.556768,124.632812 L215.400518,124.632812 L215.400518,137.308594 C215.400518,140.570312 216.748174,142.171875 219.638799,142.171875 C222.78333,142.171875 224.50208,140.238281 224.50208,137.074219 L224.50208,124.632812 L229.34583,124.632812 Z M233.448382,130.746094 C233.448382,126.878906 236.964007,124.203125 242.003069,124.203125 C247.081194,124.203125 250.264788,126.449219 250.616351,130.335938 L246.065569,130.335938 C245.714007,128.832031 244.288226,127.875 242.022601,127.875 C239.815569,127.875 238.155413,128.929688 238.155413,130.472656 C238.155413,131.683594 239.171038,132.425781 241.319476,132.914062 L245.089007,133.773438 C249.171038,134.691406 251.065569,136.449219 251.065569,139.59375 C251.065569,143.695312 247.296038,146.429688 241.964007,146.429688 C236.631976,146.429688 233.272601,144.125 232.901507,140.238281 L237.686663,140.238281 C238.155413,141.820312 239.659319,142.757812 242.081194,142.757812 C244.522601,142.757812 246.221819,141.683594 246.221819,140.101562 C246.221819,138.890625 245.303851,138.128906 243.272601,137.679688 L239.483538,136.800781 C235.381976,135.863281 233.448382,133.96875 233.448382,130.746094 Z M254.67984,146 L254.67984,124.632812 L259.504059,124.632812 L259.504059,146 L254.67984,146 Z M257.082184,121.15625 C255.324371,121.15625 254.093902,120.023438 254.093902,118.480469 C254.093902,116.9375 255.324371,115.804688 257.082184,115.804688 C258.859527,115.804688 260.070465,116.9375 260.070465,118.480469 C260.070465,120.023438 258.859527,121.15625 257.082184,121.15625 Z M282.610517,131.820312 L278.001142,131.820312 C277.551923,129.75 275.95036,128.265625 273.29411,128.265625 C269.973798,128.265625 268.001142,130.824219 268.001142,135.257812 C268.001142,139.75 269.993329,142.367188 273.29411,142.367188 C275.813642,142.367188 277.493329,141.175781 278.001142,138.949219 L282.610517,138.949219 C282.083173,143.421875 278.723798,146.429688 273.313642,146.429688 C266.88786,146.429688 263.098798,142.289062 263.098798,135.257812 C263.098798,128.324219 266.868329,124.203125 273.29411,124.203125 C278.782392,124.203125 282.102704,127.328125 282.610517,131.820312 Z M315.34687,146 L313.022651,143.519531 C310.81562,145.414062 307.573432,146.527344 304.135932,146.527344 C298.276557,146.527344 294.389839,143.363281 294.389839,138.578125 C294.389839,135.316406 296.089057,132.914062 299.760932,130.941406 C299.936714,130.863281 300.737495,130.394531 300.952339,130.296875 C298.374214,127.621094 297.436714,125.84375 297.436714,123.792969 C297.436714,120.042969 300.717964,117.289062 305.151557,117.289062 C309.604682,117.289062 312.788276,119.945312 312.788276,123.734375 C312.788276,126.625 311.010932,128.890625 306.928901,131.058594 L312.924995,137.40625 C313.667182,136.019531 314.038276,134.144531 314.038276,131.371094 L314.038276,130.316406 L318.276557,130.316406 L318.276557,131.605469 C318.276557,135.355469 317.436714,138.402344 315.913276,140.589844 L321.010932,146 L315.34687,146 Z M302.475776,133.480469 C300.19062,134.691406 299.057807,136.292969 299.057807,138.1875 C299.057807,140.902344 301.303901,142.738281 304.624214,142.738281 C306.850776,142.738281 309.09687,141.898438 310.366401,140.570312 L303.354682,133.050781 C303.139839,133.128906 302.710151,133.34375 302.475776,133.480469 Z M304.546089,128.597656 C307.436714,127.132812 308.569526,125.824219 308.569526,124.046875 C308.569526,122.113281 307.182807,120.804688 305.171089,120.804688 C303.198432,120.804688 301.792182,122.152344 301.792182,124.046875 C301.792182,125.433594 302.514839,126.625 304.546089,128.597656 Z M362.08713,146 L357.39963,146 L357.39963,126.175781 L357.126192,126.175781 L349.333223,144.90625 L345.739473,144.90625 L337.946505,126.175781 L337.673067,126.175781 L337.673067,146 L332.985567,146 L332.985567,117.816406 L338.884005,117.816406 L347.360567,138.34375 L347.71213,138.34375 L356.188692,117.816406 L362.08713,117.816406 L362.08713,146 Z M374.490463,142.542969 C377.42015,142.542969 379.60765,140.648438 379.60765,138.167969 L379.60765,136.46875 L374.783431,136.78125 C372.068588,136.957031 370.799056,137.933594 370.799056,139.671875 C370.799056,141.46875 372.342025,142.542969 374.490463,142.542969 Z M373.064681,146.351562 C368.943588,146.351562 365.994369,143.851562 365.994369,139.945312 C365.994369,136.078125 368.904525,133.851562 374.099838,133.539062 L379.60765,133.207031 L379.60765,131.410156 C379.60765,129.320312 378.2014,128.148438 375.584213,128.148438 C373.35765,128.148438 371.834213,128.929688 371.384994,130.375 L366.814681,130.375 C367.205306,126.605469 370.740463,124.203125 375.818588,124.203125 C381.306869,124.203125 384.392806,126.878906 384.392806,131.410156 L384.392806,146 L379.724838,146 L379.724838,143.070312 L379.392806,143.070312 C378.2014,145.140625 375.85765,146.351562 373.064681,146.351562 Z M388.925046,146 L388.925046,124.632812 L393.749264,124.632812 L393.749264,146 L388.925046,146 Z M391.327389,121.15625 C389.569577,121.15625 388.339108,120.023438 388.339108,118.480469 C388.339108,116.9375 389.569577,115.804688 391.327389,115.804688 C393.104733,115.804688 394.315671,116.9375 394.315671,118.480469 C394.315671,120.023438 393.104733,121.15625 391.327389,121.15625 Z M398.594004,146 L398.594004,116.371094 L403.437754,116.371094 L403.437754,146 L398.594004,146 Z M436.21317,146 L433.830357,138.792969 L423.459263,138.792969 L421.037388,146 L415.939732,146 L425.939732,117.816406 L431.603795,117.816406 L441.623326,146 L436.21317,146 Z M428.498326,123.1875 L424.631138,134.808594 L432.658482,134.808594 L428.830357,123.1875 L428.498326,123.1875 Z M456.253221,124.28125 C461.663378,124.28125 465.061815,128.460938 465.061815,135.316406 C465.061815,142.132812 461.70244,146.351562 456.311815,146.351562 C453.245409,146.351562 450.882128,145.023438 449.788378,142.757812 L449.456346,142.757812 L449.456346,153.109375 L444.612596,153.109375 L444.612596,124.632812 L449.280565,124.632812 L449.280565,128.167969 L449.612596,128.167969 C450.843065,125.746094 453.323534,124.28125 456.253221,124.28125 Z M454.729784,142.230469 C458.089159,142.230469 460.081346,139.632812 460.081346,135.316406 C460.081346,131 458.069628,128.402344 454.749315,128.402344 C451.448534,128.402344 449.378221,131.058594 449.35869,135.316406 C449.378221,139.59375 451.429003,142.230469 454.729784,142.230469 Z M480.219054,124.28125 C485.629211,124.28125 489.027648,128.460938 489.027648,135.316406 C489.027648,142.132812 485.668273,146.351562 480.277648,146.351562 C477.211242,146.351562 474.847961,145.023438 473.754211,142.757812 L473.422179,142.757812 L473.422179,153.109375 L468.578429,153.109375 L468.578429,124.632812 L473.246398,124.632812 L473.246398,128.167969 L473.578429,128.167969 C474.808898,125.746094 477.289367,124.28125 480.219054,124.28125 Z M478.695617,142.230469 C482.054992,142.230469 484.047179,139.632812 484.047179,135.316406 C484.047179,131 482.035461,128.402344 478.715148,128.402344 C475.414367,128.402344 473.344054,131.058594 473.324523,135.316406 C473.344054,139.59375 475.394836,142.230469 478.695617,142.230469 Z M501.861658,146 L501.861658,124.632812 L506.529627,124.632812 L506.529627,128.089844 L506.861658,128.089844 C507.779627,125.648438 509.967127,124.203125 512.799158,124.203125 C515.748377,124.203125 517.799158,125.6875 518.697595,128.089844 L519.029627,128.089844 C520.084314,125.746094 522.545252,124.203125 525.514002,124.203125 C529.791345,124.203125 532.36947,126.878906 532.36947,131.3125 L532.36947,146 L527.545252,146 L527.545252,132.542969 C527.545252,129.789062 526.236658,128.421875 523.639002,128.421875 C521.11947,128.421875 519.459314,130.257812 519.459314,132.699219 L519.459314,146 L514.752283,146 L514.752283,132.191406 C514.752283,129.847656 513.267908,128.421875 510.885095,128.421875 C508.482752,128.421875 506.705408,130.394531 506.705408,133.011719 L506.705408,146 L501.861658,146 Z M545.983741,146.429688 C539.577491,146.429688 535.710303,142.25 535.710303,135.316406 C535.710303,128.421875 539.636085,124.203125 545.983741,124.203125 C552.350928,124.203125 556.257178,128.402344 556.257178,135.316406 C556.257178,142.25 552.37046,146.429688 545.983741,146.429688 Z M545.983741,142.367188 C549.362647,142.367188 551.27671,139.789062 551.27671,135.316406 C551.27671,130.863281 549.343116,128.265625 545.983741,128.265625 C542.604835,128.265625 540.671241,130.863281 540.671241,135.316406 C540.671241,139.789062 542.604835,142.367188 545.983741,142.367188 Z M567.527699,146.351562 C562.117543,146.351562 558.738636,142.09375 558.738636,135.296875 C558.738636,128.539062 562.137074,124.28125 567.527699,124.28125 C570.457386,124.28125 572.879261,125.6875 574.012074,128.03125 L574.344105,128.03125 L574.344105,116.371094 L579.187855,116.371094 L579.187855,146 L574.500355,146 L574.500355,142.621094 L574.168324,142.621094 C572.957386,144.964844 570.496449,146.351562 567.527699,146.351562 Z M569.031605,128.402344 C565.730824,128.402344 563.699574,131.019531 563.699574,135.316406 C563.699574,139.632812 565.711293,142.230469 569.031605,142.230469 C572.371449,142.230469 574.402699,139.613281 574.402699,135.316406 C574.402699,131.058594 572.351918,128.402344 569.031605,128.402344 Z M591.259157,142.542969 C594.188844,142.542969 596.376344,140.648438 596.376344,138.167969 L596.376344,136.46875 L591.552126,136.78125 C588.837282,136.957031 587.567751,137.933594 587.567751,139.671875 C587.567751,141.46875 589.110719,142.542969 591.259157,142.542969 Z M589.833376,146.351562 C585.712282,146.351562 582.763063,143.851562 582.763063,139.945312 C582.763063,136.078125 585.673219,133.851562 590.868532,133.539062 L596.376344,133.207031 L596.376344,131.410156 C596.376344,129.320312 594.970094,128.148438 592.352907,128.148438 C590.126344,128.148438 588.602907,128.929688 588.153688,130.375 L583.583376,130.375 C583.974001,126.605469 587.509157,124.203125 592.587282,124.203125 C598.075563,124.203125 601.161501,126.878906 601.161501,131.410156 L601.161501,146 L596.493532,146 L596.493532,143.070312 L596.161501,143.070312 C594.970094,145.140625 592.626344,146.351562 589.833376,146.351562 Z M605.830459,146 L605.830459,116.371094 L610.674209,116.371094 L610.674209,146 L605.830459,146 Z M643.21525,131.820312 L638.605875,131.820312 C638.156656,129.75 636.555093,128.265625 633.898843,128.265625 C630.578531,128.265625 628.605875,130.824219 628.605875,135.257812 C628.605875,139.75 630.598062,142.367188 633.898843,142.367188 C636.418375,142.367188 638.098062,141.175781 638.605875,138.949219 L643.21525,138.949219 C642.687906,143.421875 639.328531,146.429688 633.918375,146.429688 C627.492593,146.429688 623.703531,142.289062 623.703531,135.257812 C623.703531,128.324219 627.473062,124.203125 633.898843,124.203125 C639.387125,124.203125 642.707437,127.328125 643.21525,131.820312 Z M655.716239,146.429688 C649.309989,146.429688 645.442801,142.25 645.442801,135.316406 C645.442801,128.421875 649.368583,124.203125 655.716239,124.203125 C662.083426,124.203125 665.989676,128.402344 665.989676,135.316406 C665.989676,142.25 662.102958,146.429688 655.716239,146.429688 Z M655.716239,142.367188 C659.095145,142.367188 661.009208,139.789062 661.009208,135.316406 C661.009208,130.863281 659.075614,128.265625 655.716239,128.265625 C652.337333,128.265625 650.403739,130.863281 650.403739,135.316406 C650.403739,139.789062 652.337333,142.367188 655.716239,142.367188 Z M669.525822,146 L669.525822,124.632812 L674.193791,124.632812 L674.193791,128.050781 L674.525822,128.050781 C675.541447,125.667969 677.689884,124.203125 680.873478,124.203125 C685.639103,124.203125 688.236759,127.074219 688.236759,132.171875 L688.236759,146 L683.393009,146 L683.393009,133.324219 C683.393009,130.0625 682.025822,128.421875 679.076603,128.421875 C676.185978,128.421875 674.369572,130.414062 674.369572,133.558594 L674.369572,146 L669.525822,146 Z M694.175249,119.398438 L698.999467,119.398438 L698.999467,124.769531 L703.56978,124.769531 L703.56978,128.636719 L698.999467,128.636719 L698.999467,139.125 C698.999467,141.234375 699.897905,142.171875 701.929155,142.171875 C702.612749,142.171875 702.983842,142.132812 703.56978,142.074219 L703.56978,145.863281 C702.866655,146 701.968217,146.097656 701.030717,146.097656 C696.128374,146.097656 694.175249,144.4375 694.175249,140.296875 L694.175249,128.636719 L690.796342,128.636719 L690.796342,124.769531 L694.175249,124.769531 L694.175249,119.398438 Z M707.066863,146 L707.066863,124.632812 L711.734832,124.632812 L711.734832,127.953125 L712.066863,127.953125 C712.6528,125.84375 714.957488,124.28125 717.711394,124.28125 C718.414519,124.28125 719.273894,124.359375 719.723113,124.496094 L719.723113,128.988281 C719.352019,128.851562 718.062957,128.714844 717.242644,128.714844 C714.098113,128.714844 711.910613,130.667969 711.910613,133.65625 L711.910613,146 L707.066863,146 Z M731.032696,146.429688 C724.626446,146.429688 720.759258,142.25 720.759258,135.316406 C720.759258,128.421875 724.68504,124.203125 731.032696,124.203125 C737.399883,124.203125 741.306133,128.402344 741.306133,135.316406 C741.306133,142.25 737.419415,146.429688 731.032696,146.429688 Z M731.032696,142.367188 C734.411602,142.367188 736.325665,139.789062 736.325665,135.316406 C736.325665,130.863281 734.392071,128.265625 731.032696,128.265625 C727.65379,128.265625 725.720196,130.863281 725.720196,135.316406 C725.720196,139.789062 727.65379,142.367188 731.032696,142.367188 Z M745.037591,146 L745.037591,116.371094 L749.881341,116.371094 L749.881341,146 L745.037591,146 Z M754.843268,146 L754.843268,116.371094 L759.687018,116.371094 L759.687018,146 L754.843268,146 Z M773.418476,128.050781 C770.527851,128.050781 768.496601,130.121094 768.281757,133.246094 L778.340351,133.246094 C778.242695,130.082031 776.328632,128.050781 773.418476,128.050781 Z M778.379414,140.121094 L782.969257,140.121094 C782.051289,144.007812 778.516132,146.429688 773.47707,146.429688 C767.188007,146.429688 763.398945,142.269531 763.398945,135.394531 C763.398945,128.519531 767.246601,124.203125 773.438007,124.203125 C779.531757,124.203125 783.184101,128.246094 783.184101,134.984375 L783.184101,136.546875 L768.262226,136.546875 L768.262226,136.800781 C768.379414,140.355469 770.430195,142.582031 773.613789,142.582031 C776.016132,142.582031 777.676289,141.703125 778.379414,140.121094 Z M786.700715,146 L786.700715,124.632812 L791.368684,124.632812 L791.368684,127.953125 L791.700715,127.953125 C792.286653,125.84375 794.59134,124.28125 797.345247,124.28125 C798.048372,124.28125 798.907747,124.359375 799.356965,124.496094 L799.356965,128.988281 C798.985872,128.851562 797.696809,128.714844 796.876497,128.714844 C793.731965,128.714844 791.544465,130.667969 791.544465,133.65625 L791.544465,146 L786.700715,146 Z" id="as-Apple-Music-&amp;-Mai"></path>
        </g>
    </g>
</svg>